<svg width="483px" height="451px" viewBox="0 0 483 451" version="1.1" xmlns="http://www.w3.org/2000/svg" xmlns:xlink="http://www.w3.org/1999/xlink">
    <g id="Page-1" stroke="none" stroke-width="1" fill="none" fill-rule="evenodd">
        <g id="connect" fill="#000000" fill-rule="nonzero">
            <path d="M255.2,193.3 C249.9,198.6 249.9,207.1 255.2,212.4 C277.1,234.3 277.1,269.9 255.2,291.8 L140.2,406.8 C118.3,428.7 82.7,428.7 60.8,406.8 L43.5,389.5 C21.6,367.6 21.6,332 43.5,310.1 L158.5,195.1 C163.8,189.8 163.8,181.3 158.5,176 C153.2,170.7 144.7,170.7 139.4,176 L24.4,291 C8.7,306.7 0,327.6 0,349.8 C0,372 8.6,392.9 24.4,408.6 L41.7,425.9 C57.9,442.1 79.2,450.2 100.5,450.2 C121.8,450.2 143.1,442.1 159.3,425.9 L274.3,310.9 C306.7,278.5 306.7,225.7 274.3,193.3 C269.1,188 260.5,188 255.2,193.3 Z" id="Shape"></path>
            <path d="M458.5,42.2 L441.2,24.9 C408.8,-7.5 356,-7.5 323.6,24.9 L208.6,139.9 C176.2,172.3 176.2,225.1 208.6,257.5 C213.9,262.8 222.4,262.8 227.7,257.5 C233,252.2 233,243.7 227.7,238.4 C205.8,216.5 205.8,180.9 227.7,159 L342.7,44 C364.6,22.1 400.2,22.1 422.1,44 L439.4,61.3 C461.3,83.2 461.3,118.8 439.4,140.7 L324.4,255.7 C319.1,261 319.1,269.5 324.4,274.8 C327,277.4 330.5,278.8 333.9,278.8 C337.3,278.8 340.8,277.5 343.4,274.8 L458.4,159.8 C474.1,144.1 482.8,123.2 482.8,101 C482.8,78.8 474.2,57.9 458.5,42.2 Z" id="Shape"></path>
        </g>
    </g>
</svg>
