<?xml version="1.0" encoding="UTF-8" standalone="no"?>
<svg width="24px" height="25px" viewBox="0 0 24 25" version="1.1" xmlns="http://www.w3.org/2000/svg" xmlns:xlink="http://www.w3.org/1999/xlink">
    <!-- Generator: Sketch 49 (51002) - http://www.bohemiancoding.com/sketch -->
    <title>placeholder</title>
    <desc>Created with Sketch.</desc>
    <defs></defs>
    <g id="Page-1" stroke="none" stroke-width="1" fill="none" fill-rule="evenodd">
        <g id="placeholder" fill="#000000" fill-rule="nonzero">
            <path d="M12.0115234,4.16665039 C10.001123,4.16665039 8.36567383,5.80205078 8.36567383,7.8125 C8.36567383,9.82294922 10.0010742,11.4583496 12.0115234,11.4583496 C14.0219727,11.4583496 15.657373,9.82294922 15.657373,7.8125 C15.657373,5.80205078 14.0219727,4.16665039 12.0115234,4.16665039 Z M12.0115234,10.4166504 C10.5750488,10.4166504 9.40737305,9.24892578 9.40737305,7.8125 C9.40737305,6.37607422 10.5750977,5.20834961 12.0115234,5.20834961 C13.447998,5.20834961 14.6156738,6.37607422 14.6156738,7.8125 C14.6156738,9.24892578 13.447998,10.4166504 12.0115234,10.4166504 Z" id="Shape"></path>
            <path d="M23.9032227,24.190625 L19.7365723,17.940625 C19.6396973,17.7958496 19.4771973,17.7083496 19.3032227,17.7083496 L14.251123,17.7083496 C13.963623,17.7083496 13.7302734,17.9416992 13.7302734,18.2291992 C13.7302734,18.5166992 13.963623,18.7500488 14.251123,18.7500488 L19.0250977,18.7500488 L22.4969727,23.9583984 L1.52714844,23.9583984 L4.99902344,18.75 L9.77192383,18.75 C10.0594238,18.75 10.2927734,18.5166504 10.2927734,18.2291504 C10.2927734,17.9416504 10.0594238,17.7083008 9.77192383,17.7083008 L4.71987305,17.7083008 C4.54589844,17.7083008 4.38339844,17.7958008 4.28652344,17.9395508 L0.119873047,24.1895508 C0.0136230469,24.3499512 0.00322265625,24.5551758 0.0948730469,24.7249512 C0.184472656,24.8937012 0.360498047,24.9999512 0.553222656,24.9999512 L23.469873,24.9999512 C23.6625977,24.9999512 23.838623,24.8937012 23.9282227,24.7259766 C24.019873,24.55625 24.010498,24.35 23.9032227,24.190625 Z" id="Shape"></path>
            <path d="M12.0115234,0 C7.70317383,0 4.19902344,3.50415039 4.19902344,7.8125 C4.19902344,11.96875 11.2958984,21.2770996 11.5990234,21.6708496 C11.6969238,21.8 11.8500488,21.875 12.0115234,21.875 C12.172998,21.875 12.326123,21.8 12.4240234,21.6708496 C12.7271484,21.2770996 19.8240234,11.96875 19.8240234,7.8125 C19.8240234,3.50415039 16.319873,0 12.0115234,0 Z M12.0115234,20.484375 C10.482373,18.4145996 5.24072266,11.0791504 5.24072266,7.8125 C5.24072266,4.07915039 8.27822266,1.04165039 12.0115723,1.04165039 C15.7449219,1.04165039 18.782373,4.07915039 18.782373,7.8125 C18.782373,11.0791504 13.5407227,18.4145996 12.0115234,20.484375 Z" id="Shape"></path>
        </g>
    </g>
</svg>