<svg viewBox="0 0 18 13" xmlns="http://www.w3.org/2000/svg"><g fill="none"><path d="M16.875,0 L1.125,0 C0.505125,0 0,0.505125 0,1.125 L0,11.25 C0,11.871 0.505125,12.375 1.125,12.375 L16.875,12.375 C17.496,12.375 18,11.871 18,11.25 L18,1.125 C18,0.505125 17.496,0 16.875,0 Z" fill="#F44336"/><path d="M12.9375,3.375 C11.386125,3.375 10.125,4.63725 10.125,6.1875 C10.125,6.823125 10.344375,7.403625 10.701,7.875 L7.297875,7.875 C7.655625,7.403625 7.875,6.823125 7.875,6.1875 C7.875,4.63725 6.61275,3.375 5.0625,3.375 C3.51225,3.375 2.25,4.63725 2.25,6.1875 C2.25,7.738875 3.51225,9 5.0625,9 L12.9375,9 C14.488875,9 15.75,7.738875 15.75,6.1875 C15.75,4.63725 14.488875,3.375 12.9375,3.375 Z M3.375,6.1875 C3.375,5.257125 4.132125,4.5 5.0625,4.5 C5.992875,4.5 6.75,5.257125 6.75,6.1875 C6.75,7.117875 5.992875,7.875 5.0625,7.875 C4.132125,7.875 3.375,7.117875 3.375,6.1875 Z M12.9375,7.875 C12.007125,7.875 11.25,7.117875 11.25,6.1875 C11.25,5.257125 12.007125,4.5 12.9375,4.5 C13.867875,4.5 14.625,5.257125 14.625,6.1875 C14.625,7.117875 13.867875,7.875 12.9375,7.875 Z" fill="#FAFAFA"/></g></svg>